<svg id="Ñëîé_1" data-name="Ñëîé 1" xmlns="http://www.w3.org/2000/svg" viewBox="0 0 595 180.64"><defs><style>.cls-1{fill:#edbf37;}.cls-2{opacity:0.2;}.cls-3,.cls-6,.cls-7{fill:#56544c;}.cls-4{fill:none;}.cls-5{fill:#fff;}.cls-6{fill-rule:evenodd;}.cls-7,.cls-8{font-size:24px;font-family:Rhetoric-Bold, Rhetoric;font-weight:700;}.cls-8,.cls-9{fill:#ffe05c;}</style></defs><title>My Tehran - Pycon Tehran LO 2</title><rect class="cls-1" width="595" height="180.64"/><polygon class="cls-2" points="452.95 163.19 452.34 142.76 438.35 140.62 423.22 125.51 418.81 124.35 415.02 117.16 408.6 119.07 402.45 115.81 398.76 117.04 372.79 105.49 361.45 105.36 348.06 100.61 344.64 101.84 337.54 99.8 333.03 101.85 320.87 97.64 310.08 99.29 298.87 96.3 276.33 96.18 247.5 88.44 236.57 91.72 218.66 83.28 200.49 84.53 171.52 78.16 162.78 81.16 151.85 79.67 144.28 81.16 126.39 87.17 115.45 83.91 85.07 104.59 62.34 107.42 51.33 114.98 40.54 115.83 28.39 125.94 23.88 123.91 16.79 130.79 13.37 129.56 0 134.34 0 162.19 7.01 156.7 14.76 154.08 20.95 152.3 27.55 154.2 33.88 150.93 37.67 152.15 62.65 134.15 75.33 137.78 88.76 128.51 93.31 132.1 100.62 130.04 105.27 132.08 117.77 127.85 128.88 129.47 140.4 126.47 160.75 130.92 192.81 116.89 204.49 121.76 222.9 113.28 241.6 114.49 271.39 108.06 280.39 111.05 291.64 116.94 299.44 118.41 317.86 124.38 329.11 121.11 360.4 134.32 383.79 137.11 395.13 144.65 406.24 145.47 418.76 155.56 423.39 153.51 430.71 155.55 434.22 154.32 448 162.3 452.38 162.31 452.38 163.7 452.96 163.7 452.95 163.19"/><polygon class="cls-2" points="452.38 162.31 448 162.3 434.22 154.32 430.71 155.55 423.39 153.51 418.76 155.56 406.24 145.47 395.13 144.65 383.79 137.11 360.4 134.32 329.11 121.11 317.86 124.38 299.44 118.41 291.64 116.94 280.39 111.05 271.39 108.06 241.6 114.49 222.9 113.28 204.49 121.76 192.81 116.89 160.75 130.92 140.4 126.47 128.88 129.47 117.77 127.85 105.27 132.08 100.62 130.04 93.31 132.1 88.76 128.51 75.33 137.78 62.65 134.15 37.67 152.15 33.88 150.93 27.55 154.2 20.95 152.3 14.76 154.08 7.01 156.7 0 162.19 0 164.15 30.31 164.12 452.38 163.7 452.38 162.31"/><polygon class="cls-2" points="452.38 162.31 448 162.3 434.22 154.32 430.71 155.55 423.39 153.51 418.76 155.56 406.24 145.47 395.13 144.65 383.79 137.11 360.4 134.32 329.11 121.11 317.86 124.38 299.44 118.41 291.64 116.94 280.39 111.05 271.39 108.06 241.6 114.49 222.9 113.28 204.49 121.76 192.81 116.89 160.75 130.92 140.4 126.47 128.88 129.47 117.77 127.85 105.27 132.08 100.62 130.04 93.31 132.1 88.76 128.51 75.33 137.78 62.65 134.15 37.67 152.15 33.88 150.93 27.55 154.2 20.95 152.3 14.76 154.08 7.01 156.7 0 162.19 0 164.15 30.31 164.12 452.38 163.7 452.38 162.31"/><polygon class="cls-2" points="0 165.57 452.38 165.12 452.38 163.7 30.31 164.12 0 164.15 0 165.57"/><rect class="cls-3" y="167.46" width="458.6" height="3.55"/><path class="cls-4" d="M339.1,139.65c-2.45.73-4.15,2.53-5.78,3.93-1.73,5.87-3.09,11.89-4.64,17.82l20.88,0c-1.52-5.73-2.88-11.47-4.31-17.21C343.56,142.26,342.1,140.54,339.1,139.65Z"/><path class="cls-5" d="M386.26,151.23l34.9.05,0-14.31h-3.32v-3.11H416.7l-.1-4.33-.2-8.75-.18,8.75-.09,4.33h-.87V137h-.8v-3.13h-7.23V137h-3.07l0-13.63h-4.69v-1.73h.05l.18-.76v-.28l-1.2-.87-1.21-.87-1.21.88-.56.4-.08-3.35-.2-8.75-.18,8.75L395,120.2l-.67-.47-1.21-.87-1.2.87-1.22.87v.28l.17.67v1.82h-4.61Z"/><path class="cls-5" d="M113.06,118l15.32,0v-1.89h-1v-1.35h-.6a8.58,8.58,0,0,0-4.06-5.41h.07c0-.83-.93-1.28-1.92-1.33l-.17-5h-.14l-.16,5c-1,.06-1.85.5-1.85,1.34h.06a8.6,8.6,0,0,0-4.05,5.41H114v1.35h-1Z"/><polygon class="cls-5" points="105.53 140.88 105.52 123.82 102.38 123.82 102.38 122.04 94.38 122.05 93 123.83 91.02 123.83 91.04 151.93 89.86 151.94 89.84 131.42 75.79 131.43 75.78 128.07 61.85 140.15 61.87 155.86 60.62 155.86 60.6 141.25 50.04 151.2 50.04 151.13 34.64 165.53 107.56 165.46 107.56 140.88 105.53 140.88"/><polygon class="cls-5" points="50.02 136.2 46.86 136.2 46.85 134.85 40.93 134.85 40.93 136.21 37.7 136.21 37.71 145.59 35.6 145.59 35.59 143.44 30.62 143.44 30.62 145.6 30.07 145.6 30.07 143.46 28.31 143.46 28.31 145.6 26.02 145.6 26.03 157.02 20.64 157.02 20.65 161.7 0 161.72 0 165.57 31.42 165.54 50.04 148.13 50.02 136.2"/><path class="cls-5" d="M453,161.27l-24,0v-7.76c-15,0-30.11-.07-45.22,0,0-9.79.07-19.43.06-29.19H381.3v-1.75h-3l.13-.52v-.27l-1.21-.87-.21-.15-.09-4-.19-8.76-.19,8.76-.07,3.56L376,120l-1.21.87-1.21.87v.28l.13.52h-1v1.75h-3.06l0,19.45h-5.21v4.51L384,165.18l68.95-.07Z"/><path class="cls-5" d="M226.8,123v-3.22c-5.43,0-.68,0-10.58,0V123h-1.94l0-22.31h-1.35V94.85h-6.64l-.15-6.47-.2-8.75-.18,8.75-.14,6.47H198v5.8h-6.77c0,20.47,0,11.36,0,35.07h-3.05v-11h-1.43v-3.51h-1.06v-3.16h-2.45l-2.63-2.4-3.16-2.87-3.15,2.87-2.63,2.41h-2.44v3.15h-1.06v3.51h-1.43q0,16.08,0,32.15h-.82v-3.82h-.7v-9.52l-10.83,0,.08,9.8a59.94,59.94,0,0,1,10.07,1.67l-2.71,7.2h-.93l2.39-6.37a59,59,0,0,0-10.07-1.68l-.84-44.74h.05l-.75-34.31,4.95-7.15c1.81-2.62,2.38-3.55.11-4.42.63-1.38.28-2-1.75-2.71.25-.83-.16-1.25-1.63-1.74.15-.5,0-.8-.72-1.1h0a3.52,3.52,0,0,0-3.09-3.32L149,16.64h-.43l-.48,38.14A3.52,3.52,0,0,0,145,58.11h0c-.69.3-.87.6-.72,1.1-1.47.49-1.88.92-1.62,1.74-2,.71-2.38,1.34-1.75,2.72-2.27.87-1.7,1.8.12,4.42l5.17,7.42-1.35,67.61c-3.67.69-7.34,1.33-11,2v5.07h-2.22q0-12.73,0-25.51h-1.72v-5.13l-18.28,0v5.13h-1.71c0,13.67-.12,27-.11,40.78l37.41,0,18.77,0h3.48l60.53-.06q0-21.19,0-42.38Z"/><path class="cls-5" d="M302.91,141.47l0-25.56.45-.35v-1.29h-5.51v-4h.25l.48-1.89v-.68l-3-2.17-2.8-2-.1-2.47-.13-3.45-.13,3.45-.09,2.48-2.78,2-3,2.18v.68l.48,1.89h.25v4h-5.51v1.24l.06,0,.39.32,0,17.44h-9.88v-11.3H273l.84-2.34v-1.77h-1.59v-8.32H273l.83-2.35v-1l-2.08-1.85-1.94-1.71-.05-1.35-.13-3.45-.13,3.45-.05,1.37-1.9,1.69-2.1,1.86h0v1l.84,2.41H267V118h-1.59v1.7l0,.07.82,2.34h.76v11.29h-10l0-17.41.45-.36V114.3h-5.46v-3.9h.21l.47-1.89v-.69l-3-2.17-2.8-2-.09-2.48-.14-3.45-.12,3.45-.09,2.49-2.79,2-3,2.17v.69l.47,1.89h.3v3.9h-5.55v1.25l0,0,.4.32,0,25.61h-4.2v23.8l81-.09c0-7.95.05-15.88,0-23.79Z"/><path class="cls-5" d="M350.11,115.11l-4.29.24-1.41-1H342c-.08-.82-1.35-1.47-2.9-1.47s-2.82.66-2.9,1.48h-2.44l-1.41,1-4.29-.22c0,8.12.36,16.12-.85,24.17l-11.85,10.54v15.4l65.32-.06c-10-8.63-19.79-17.19-29.63-25.91C349.79,131.24,350.12,123.24,350.11,115.11ZM328.68,161.4c1.55-5.93,2.91-12,4.64-17.82,1.63-1.4,3.33-3.2,5.78-3.93,3,.89,4.46,2.61,6.15,4.52,1.43,5.74,2.79,11.48,4.31,17.21Z"/><path class="cls-6" d="M202.72,106.32h2.17v2.17h-2.17v-2.17Zm0,18.6h2.17v2.17h-2.17v-2.17Zm8,0h2.16v2.17h-2.17v-2.16Zm-4,0h2.17v2.17h-2.17v-2.17Zm-3.94-4.7h2.16v2.17h-2.17v-2.17Zm8,0h2.17v2.17H210.7v-2.17Zm-4,0h2.17v2.17h-2.17v-2.17Zm-4-4.64h2.17v2.17h-2.17v-2.17Zm3.94,0h2.17v2.17h-2.17v-2.17Zm-3.94-4.64h2.17v2.17h-2.17v-2.17Zm8,0h2.17v2.17h-2.17v-2.17Zm-4,0h2.17v2.17h-2.17v-2.16Zm4-4.63h2.17v2.17h-2.17v-2.17Zm-4,0h2.17v2.17h-2.17Z"/><path class="cls-6" d="M111.77,127.89h2.17v2.16h-2.17v-2.17Zm0,23.07H114v2.17H111.8V151Zm12.4,0h2.17v2.17H124.2v-2.17Zm0,9.26h2.16v2.17h-2.17V160.2Zm3.31,0h2.17v2.17h-2.17V160.2Zm-3.32-4.64h2.17v2.17H124.2v-2.17Zm3.32,0h2.17v2.17h-2.17v-2.17Zm0-4.62h2.17v2.17h-2.17v-2.17Zm-15.7,9.28H114v2.17h-2.17v-2.17Zm3.46,0h2.17v2.17h-2.17v-2.17Zm-3.47-4.63H114v2.17H111.8v-2.16Zm3.46,0h2.17v2.17h-2.16v-2.17Zm0-4.62h2.17v2.17h-2.17V151Zm8.91-23.07h2.17V130h-2.16v-2.16Zm0,18.6h2.17v2.16h-2.17v-2.17Zm3.32,0h2.17v2.17h-2.17v-2.17Zm-3.32-4.69h2.17v2.17h-2.17v-2.16Zm3.31,0h2.17v2.17h-2.16v-2.17Zm-3.32-4.63h2.17v2.17h-2.17v-2.16Zm3.32,0h2.17v2.17H127.5v-2.17Zm-3.32-4.64h2.17v2.17h-2.17v-2.17Zm3.31,0h2.17v2.17H127.5v-2.17Zm0-4.62h2.17V130h-2.17v-2.17Zm-15.7,18.62H114v2.17h-2.17v-2.17Zm3.46,0h2.17v2.17h-2.17v-2.17Zm-3.46-4.7H114V144h-2.17v-2.17Zm3.46,0h2.17V144h-2.17v-2.17Zm-3.47-4.63H114v2.16h-2.16v-2.17Zm3.46,0h2.17v2.17h-2.17v-2.16Zm-3.46-4.64H114v2.17h-2.17v-2.17Zm3.46,0h2.17v2.17h-2.17V132.5Zm0-4.62h2.16v2.17h-2.17Z"/><path class="cls-6" d="M216.58,159.47h2.17v2.16h-2.17v-2.17Zm8-4.65h2.17V157h-2.17v-2.17Zm-8-4.63h2.17v2.17h-2.17v-2.17Zm8-4.63h2.17v2.17h-2.17v-2.17Zm-8-4.5h2.17v2.17h-2.17v-2.17Zm0-4.7h2.17v2.17h-2.16v-2.17Zm8,0h2.17v2.17h-2.17v-2.17Zm-8-4.63h2.17v2.17h-2.17v-2.17Zm8,0h2.17v2.17h-2.17v-2.17Zm-8-4.63h2.17v2.17h-2.17v-2.16Zm8,0h2.17v2.16h-2.17Z"/><rect class="cls-3" x="118.52" y="127.74" width="4.5" height="37.47"/><path class="cls-6" d="M256.24,145.58h7.83l0,13h-7.83l0-13ZM288.62,159H298v-9.3h0v-.08a4.65,4.65,0,1,0-9.3,0v.08h0V159Zm-47.55.05h9.34v-9.29h0v-.08a4.65,4.65,0,1,0-9.3,0v.08h0v9.29Zm-2.38-40.93h15.86v5.51l-15.87,0v-5.52Zm46,0,15.87,0v5.52H284.66v-5.51Zm0,7.86,15.87,0v5.52H284.67v-5.51Zm-46,0h15.87v5.51l-15.87,0V126ZM275,145.56h7.83v13H275v-13Zm-9.34,0h7.83v13h-7.83Z"/><path class="cls-6" d="M269.7,115.14a1.85,1.85,0,1,0-1.85-1.85A1.86,1.86,0,0,0,269.7,115.14Z"/><path class="cls-6" d="M192.61,124.89H201v2.22h-8.42v-2.22Zm0-18.58H201v2.22h-8.42v-2.22Zm0,4.64H201v2.22H192.6V111Zm0,4.64H201v2.22H192.6v-2.22Zm0,4.66H201v2.22h-8.42Z"/><path class="cls-6" d="M67.27,140H69v-1.7h-1.7V140ZM80,160.09h1.71v1.71h-1.7v-1.71Zm6.26-3.65H88v1.7H86.3v-1.7Zm-3.16,0h1.7v1.71h-1.7v-1.71ZM80,152.8h1.7v1.7H80v-1.7Zm3.09,0h1.71v1.71h-1.7v-1.71Zm3.16-3.63H88v1.7H86.3v-1.71Zm-3.16,0h1.71v1.71H83.13v-1.71ZM80,145.62h1.7v1.71H80v-1.71Zm3.1,0h1.7v1.7h-1.7v-1.71ZM80,141.93h1.7v1.7H80v-1.7Zm6.26,0H88v1.7h-1.7v-1.71ZM80,138.28h1.71V140H80v-1.71Zm6.26,0H88V140h-1.7v-1.71Zm-3.16,0h1.71V140H83.12v-1.7ZM80,134.63h1.7v1.71H80v-1.71Zm6.26,0H88v1.71H86.28v-1.7Zm-15.93,1.72h1.7v-1.71H70.34v1.71ZM76.61,140h1.71v-1.71h-1.7V140Zm-3.16,0h1.7v-1.71h-1.7V140Zm-3.1,3.65h1.71v-1.7H70.35v1.7Zm3.1,0h1.71v-1.71h-1.7v1.71Zm3.17,3.63h1.7v-1.7h-1.7v1.71Zm-3.17,0h1.71v-1.71H73.45v1.71Zm-3.09,3.55h1.71v-1.7h-1.7v1.71Zm3.1,0h1.7v-1.7h-1.7v1.7Zm-3.1,3.7h1.71v-1.7H70.36v1.7Zm6.26,0h1.71v-1.7H76.62v1.71Zm-6.25,3.65h1.7v-1.71h-1.7v1.71Zm6.26,0h1.7v-1.7h-1.7v1.7Zm-3.16,0h1.7v-1.7H73.46v1.71Zm-3.1,3.65h1.71V160.1h-1.7v1.71Zm6.26,0h1.71v-1.71H76.63v1.7ZM64.11,143.65h1.7v-1.71h-1.7v1.71Zm3.17,3.63H69v-1.7H67.27v1.71Zm-3.17,0h1.71v-1.71H64.11v1.71Zm0,3.54h1.7v-1.7H64.11v1.7Zm3.16,3.7H69v-1.7H67.28v1.71Zm0,3.64H69v-1.7h-1.7v1.7Zm-3.17,0h1.71v-1.7H64.12v1.71Zm3.17,3.64H69V160.1h-1.7Z"/><path class="cls-6" d="M55,160.12h1.7v1.7H55v-1.7Zm3.09-3.65H59.8v1.7H58.09v-1.7ZM55,152.82H56.7v1.71H55v-1.71Zm3.1,0h1.7v1.7H58.09v-1.7Zm0-3.63h1.71v1.7h-1.7v-1.7Zm0-3.54h1.71v1.71H58.08v-1.7Zm-6.5,8.88h1.7v-1.71h-1.7v1.7Zm0,3.65h1.71v-1.71H51.58v1.71Zm-3.16,0h1.7v-1.71h-1.7v1.7Zm-3.1,3.65H47v-1.7H45.32v1.7Zm6.27,0h1.7v-1.7H51.58v1.71Zm-9.35,0H44v-1.7H42.24Z"/><rect class="cls-3" x="42.61" y="141.5" width="5.43" height="1.7"/><rect class="cls-3" x="39.45" y="141.51" width="1.7" height="1.7"/><rect class="cls-3" x="42.61" y="138.35" width="5.43" height="1.7"/><rect class="cls-3" x="39.44" y="138.35" width="1.7" height="1.7"/><rect class="cls-3" x="42.62" y="145.02" width="5.43" height="1.7"/><path class="cls-6" d="M30.56,161.19h1.71v1.7H30.56v-1.7Zm3.09-3.65h1.71v1.7h-1.7v-1.7Zm-3.1-3.65h1.71v1.71H30.55v-1.71Zm3.1,0h1.71v1.7H33.65v-1.7Zm0-3.63h1.7V152h-1.7v-1.7Zm0-3.54h1.71v1.71h-1.7v-1.7Zm-6.5,8.88h1.71v-1.71h-1.7v1.7Zm0,3.65h1.71v-1.71H27.14v1.71Zm0,3.65h1.7v-1.7h-1.7Z"/><path class="cls-6" d="M380.42,126.6h2.05v2h-2V126.6Zm0,17.54h2v2.05h-2.05v-2Zm0-4.44h2v2.05h-2V139.7Zm0-4.37h2.05v2h-2.05v-2Zm0-4.37h2V133h-2Z"/><path class="cls-6" d="M370.89,144.1h7.94v2.1h-7.94v-2.1Zm0-17.51h7.94v2.1h-7.93v-2.1Zm0,4.37h7.94v2.1h-7.94V131Zm0,4.38h7.94v2.09h-7.94v-2.09Zm0,4.39h7.93v2.1h-7.94Z"/><path class="cls-6" d="M397.56,146.89h1.7v1.71h-1.7v-1.71Zm-3.1-3.64h1.7V145h-1.7v-1.7Zm3.09,0h1.71V145h-1.7v-1.7Zm0-3.63h1.71v1.71h-1.71v-1.7Zm-3.1-3.55h1.7v1.71h-1.71v-1.71Zm3.1,0h1.7v1.7h-1.7v-1.71Zm-3.1-3.69h1.7v1.7h-1.7v-1.7Zm0-3.65h1.71v1.7h-1.71v-1.71Zm3.1,0h1.7v1.7h-1.71v-1.7Zm-3.1-3.65h1.7v1.71h-1.7v-1.71ZM391,130.44h1.7v-1.71H391v1.71Zm0,7.28h1.7V136H391v1.71Zm0,7.24h1.71v-1.71H391V145Zm0,3.64h1.7v-1.7h-1.7Z"/><path class="cls-6" d="M424.27,155.17H426v1.7h-1.71v-1.7Zm-3.16,0h1.7v1.71h-1.71v-1.71ZM418,158.8h1.7v1.7H418V158.8Zm6.26,0H426v1.71h-1.7v-1.7Zm-9.68-1.92h1.7v-1.7h-1.7v1.7Zm-3.16,0h1.7v-1.7h-1.71Z"/><path class="cls-6" d="M173,165.39c.74-41.82,8.58-41.83,9.4,0Z"/><path class="cls-6" d="M171.35,125.62h1v6h-1v-6Zm-3.47,0h1v6h-1v-6Zm14.63,0h1v6h-1v-6Zm-7.32,0h1v6h-1v-6Zm10.79,0h1v6h-1v-6Zm-7.31,0h1v6h-1Z"/><rect class="cls-3" x="173.54" y="118.56" width="7.76" height="1.29"/><path class="cls-6" d="M171.78,121.58h.8v2.77h-.8v-2.77Zm1.48,0h.8v2.76h-.8v-2.76Zm-2.8,0h.8v2.77h-.8v-2.77Zm11.81,0h.8v2.76h-.8v-2.77Zm-5.9,0h.79v2.76h-.8v-2.76Zm8.7,0h.8v2.76h-.8v-2.76Zm-5.9,0h.8v2.77h-.8v-2.76Zm-10.19,0h.8v2.77H169v-2.76Zm11.81,0h.79v2.77h-.8v-2.77Zm-5.91,0h.8v2.76h-.79v-2.76Zm8.71,0h.79v2.76h-.8v-2.76Zm-5.91,0h.8v2.76h-.8Z"/><path class="cls-6" d="M118.61,126.49h4.2V122.3h0v0a2.09,2.09,0,0,0-4.18,0v0h0Z"/><rect class="cls-3" x="114.42" y="121.83" width="1.7" height="1.7"/><rect class="cls-3" x="125.21" y="121.82" width="1.7" height="1.7"/><path class="cls-6" d="M148.25,101.61h1.49v1.48h-1.49v-1.49Zm0-6.36h1.49v1.48h-1.48V95.25Zm0-6.25h1.48v1.49h-1.49V89Zm0-3.23h1.49v1.49h-1.48V85.77Zm0-3.17h1.49v1.49h-1.49V82.6Zm0-3.18h1.48V80.9h-1.49Z"/><path class="cls-6" d="M148.28,129.54h1.48V131h-1.49v-1.49Zm0-6.36h1.49v1.49h-1.49v-1.49Zm0-6.25h1.48v1.48h-1.48v-1.48Zm0-3.22h1.49v1.49h-1.49v-1.48Zm0-3.18h1.49V112h-1.49v-1.48Zm0-3.18h1.48v1.48h-1.48Z"/><path class="cls-6" d="M143.09,65.68h-1.41c0-1.61,1.41-1.61,1.41,0Zm12.69,0h-1.41c0-1.61,1.41-1.61,1.41,0Zm-2.53,0h-1.42c0-1.61,1.41-1.61,1.42,0Zm-2.47,0h-1.41c0-1.61,1.41-1.62,1.41,0Zm-2.6,0h-1.41c0-1.61,1.41-1.61,1.41,0Zm-2.49,0h-1.42C144.27,64.07,145.69,64.07,145.69,65.68Z"/><path class="cls-6" d="M144.74,60.62h-1.31c0-1.48,1.31-1.48,1.31,0Zm9.36,0h-1.3c0-1.48,1.3-1.48,1.3,0Zm-2.27,0h-1.31c0-1.49,1.31-1.49,1.31,0Zm-2.4,0h-1.3c0-1.49,1.3-1.49,1.3,0Zm-2.3,0h-1.3C145.83,59.14,147.13,59.13,147.13,60.62Z"/><path class="cls-6" d="M210.73,148.52h2.17v2.17h-2.17v-2.17Zm-4,0h2.17v2.17h-2.17v-2.17Zm-3.94-4.7h2.17V146h-2.17v-2.17Zm8,0h2.17V146h-2.17v-2.17Zm-8-9.27h2.17v2.17h-2.17v-2.17Zm8,0h2.16v2.17h-2.17v-2.17Zm-4,0h2.17v2.17h-2.17v-2.17Zm4-4.63h2.17v2.17h-2.17v-2.17Zm-4,0h2.17v2.16h-2.17Z"/><path class="cls-6" d="M192.63,148.49h8.42v2.22h-8.43v-2.22Zm0-18.58H201v2.22h-8.42v-2.22Zm0,4.64H201v2.22h-8.42v-2.22Zm0,9.3h8.42v2.22h-8.42Z"/><path class="cls-6" d="M343.59,120.05h-1.41c0-3.55,1.41-3.55,1.41,0Zm-2.46,0h-1.42c0-3.55,1.41-3.55,1.42,0Zm-2.6,0h-1.41c0-3.55,1.41-3.55,1.41,0Zm-2.5,0h-1.41C334.62,116.5,336,116.5,336,120.05Z"/><path class="cls-6" d="M374,163.33l-2.65,0c-14.57-15.45-13.09-15.19,2.65,0Zm-4.68-.05c-13.69-15.62-15.31-15.85-2.79,0l2.79,0Zm-5.18,0c-11.54-16-13.3-16.23-2.94,0Zm-5.24,0c-9.46-16.42-11.36-16.6-3.07,0Z"/><path class="cls-6" d="M315.31,154.41c2.56-3,2.52-3.34,0-1.17v1.17Zm0,4.6v-2.56c6.71-7.3,7-6.54,0,2.56Zm0,4.31V162c10.63-14.7,12-14.45,2,1.35Zm4.28,0,3.07,0C330.92,146.72,329,146.91,319.6,163.34Z"/><path class="cls-6" d="M295.9,113.92h-1.42c0-4.45,1.41-4.45,1.42,0Zm-2.6,0h-1.41c0-4.46,1.41-4.46,1.41,0Zm-2.5,0h-1.41C289.38,109.48,290.8,109.48,290.8,113.93Z"/><path class="cls-6" d="M250,114h-1.41c0-4.45,1.41-4.45,1.41,0Zm-2.59,0h-1.42c0-4.45,1.41-4.45,1.42,0Zm-2.5,0h-1.41C243.44,109.52,244.86,109.52,244.86,114Z"/><text class="cls-7" transform="translate(163.11 75.15)">PYCON</text><text class="cls-8" transform="translate(242.78 74.73)">Tehran</text><rect class="cls-9" x="235.63" y="53.06" width="2.04" height="24.77" rx="0.86" transform="translate(473.29 130.88) rotate(180)"/><path class="cls-3" d="M235.63,64.76V53.92a.85.85,0,0,1,.85-.86h.32a.85.85,0,0,1,.86.86V66.14Z"/><circle class="cls-3" cx="210.02" cy="65.44" r="1.21"/></svg>