<svg id="Ñëîé_1" data-name="Ñëîé 1" xmlns="http://www.w3.org/2000/svg" xmlns:xlink="http://www.w3.org/1999/xlink" viewBox="0 0 595 233.58"><defs><style>.cls-1{fill:none;}.cls-2{clip-path:url(#clip-path);}.cls-3{fill:#edbf37;}.cls-4{opacity:0.2;}.cls-5,.cls-7{fill:#56544c;}.cls-6{fill:#fff;}.cls-7{fill-rule:evenodd;}</style><clipPath id="clip-path"><rect class="cls-1" width="595" height="270.21"/></clipPath></defs><title>My Tehran (Light Orange)</title><g class="cls-2"><polygon class="cls-3" points="0 0 0 233.58 595 193.4 595 0 0 0"/><polygon class="cls-4" points="3.32 203.79 11.67 196.3 20.23 192.75 27.07 190.28 34.68 191.92 41.57 187.75 45.95 188.84 72.79 166.63 87.38 169.78 101.84 158.3 107.26 162.01 115.36 159.14 120.75 161.09 134.55 155.37 147.22 156.37 160 152.1 183.31 155.59 218.45 137.34 232.01 141.95 252.15 130.99 273.35 130.95 306.51 121.44 316.89 124.13 330.04 129.94 338.96 131.01 360.21 136.37 372.65 131.82 408.99 144.38 435.61 145.76 448.98 153.42 461.58 153.51 476.48 163.96 481.56 161.3 489.96 163.04 493.84 161.39 510 169.36 514.95 169.05 515.05 170.61 515.71 170.57 515.66 170 513.43 146.98 497.46 145.62 479.25 129.7 474.18 128.72 469.35 120.88 462.25 123.53 455.06 120.31 450.99 121.97 420.8 110.89 407.99 111.61 392.51 107.25 388.75 108.89 380.57 107.13 375.63 109.78 361.58 105.95 349.52 108.62 336.64 106.09 311.18 107.65 278.05 101.09 265.96 105.62 245.1 97.44 224.69 100.22 191.5 95.21 181.85 99.26 169.4 98.4 160.96 100.65 141.21 108.79 128.62 105.94 95.88 131.58 70.43 136.48 58.57 145.85 46.45 147.62 33.5 159.96 28.25 158 20.75 166.3 16.8 165.18 2.05 171.58 0 175.98 0 204.17 3.32 203.79"/><polygon class="cls-4" points="510 169.36 493.84 161.39 489.96 163.04 481.56 161.3 476.48 163.96 461.58 153.51 448.98 153.42 435.61 145.76 408.99 144.38 372.65 131.82 360.21 136.37 338.96 131.01 330.04 129.94 316.89 124.13 306.51 121.44 273.35 130.95 252.15 130.99 232.01 141.95 218.45 137.34 183.31 155.59 160 152.1 147.22 156.37 134.55 155.37 120.75 161.09 115.36 159.14 107.26 162.01 101.84 158.3 87.38 169.78 72.79 166.63 45.95 188.84 41.57 187.75 34.68 191.92 27.07 190.28 20.23 192.75 11.67 196.3 3.32 203.79 0 204.17 0 205.53 38.53 202.91 515.05 170.61 514.95 169.05 510 169.36"/><polygon class="cls-4" points="510 169.36 493.84 161.39 489.96 163.04 481.56 161.3 476.48 163.96 461.58 153.51 448.98 153.42 435.61 145.76 408.99 144.38 372.65 131.82 360.21 136.37 338.96 131.01 330.04 129.94 316.89 124.13 306.51 121.44 273.35 130.95 252.15 130.99 232.01 141.95 218.45 137.34 183.31 155.59 160 152.1 147.22 156.37 134.55 155.37 120.75 161.09 115.36 159.14 107.26 162.01 101.84 158.3 87.38 169.78 72.79 166.63 45.95 188.84 41.57 187.75 34.68 191.92 27.07 190.28 20.23 192.75 11.67 196.3 3.32 203.79 0 204.17 0 205.53 38.53 202.91 515.05 170.61 514.95 169.05 510 169.36"/><polygon class="cls-4" points="0 205.53 0 207.13 515.16 172.21 515.05 170.61 38.53 202.91 0 205.53"/><polygon class="cls-5" points="522.61 178.15 522.34 174.13 0 209.54 0 213.57 522.61 178.15"/><path class="cls-1" d="M385.33,152c-2.7,1-4.49,3.17-6.22,4.87-1.51,6.76-2.6,13.67-3.9,20.47l23.57-1.6c-2.14-6.35-4.11-12.72-6.16-19.1C390.57,154.62,388.79,152.78,385.33,152Z"/><path class="cls-6" d="M439.46,161.53l39.4-2.58-1.09-16.16-3.76.26-.24-3.52-1.25.09-.44-4.88-.89-9.87.46,9.89.22,4.9-1,.07.24,3.51-.91.06-.24-3.53-8.15.55.24,3.53-3.47.24-1-15.39-5.3.36-.14-2h.06l.16-.87,0-.31-1.43-.89-1.43-.89-1.3,1.07-.6.5-.34-3.78-.88-9.87.45,9.9.18,3.87-.78-.48-1.44-.9-1.3,1.08-1.3,1.08,0,.31.25.75.14,2-5.2.35Z"/><path class="cls-6" d="M128.49,144.6l17.29-1.17-.14-2.14-1.08.07-.11-1.53-.67,0a9.69,9.69,0,0,0-5-5.79h.07c-.06-.94-1.14-1.37-2.26-1.36l-.56-5.6h-.17l.2,5.62c-1.08.15-2,.71-2,1.66h.07a9.72,9.72,0,0,0-4.16,6.41l-.67.05.1,1.53-1.08.07Z"/><polygon class="cls-6" points="121.72 171 120.41 151.74 116.88 151.98 116.74 149.97 107.7 150.58 106.29 152.7 104.04 152.85 106.19 184.57 104.85 184.66 103.28 161.5 87.42 162.58 87.16 158.78 72.34 173.47 73.55 191.21 72.14 191.3 71.02 174.8 59.84 186.83 59.84 186.76 43.53 204.18 125.86 198.6 124 170.84 121.72 171"/><polygon class="cls-6" points="59.61 183.37 58.69 169.9 55.12 170.14 55.01 168.62 48.32 169.07 48.43 170.59 44.78 170.84 45.49 181.44 43.11 181.6 42.95 179.17 37.33 179.55 37.49 181.98 36.87 182.02 36.71 179.6 34.72 179.74 34.88 182.16 32.3 182.33 33.17 195.22 27.09 195.63 27.45 200.91 0 202.78 0 207.13 39.9 204.43 59.61 183.37"/><path class="cls-6" d="M515.51,167.83l-27,1.83-.6-8.75c-17,1.15-34,2.19-51.06,3.35-.73-11.06-1.38-21.94-2.13-33l-2.86.2-.13-2-3.4.23.1-.59,0-.31-1.43-.89-.24-.16-.4-4.45-.89-9.87.46,9.9.18,4-.54-.33-1.3,1.07-1.3,1.08,0,.31.19.57-1.14.08.13,2-3.46.24,1.49,22-5.88.39.34,5.09L438,177.45l77.86-5.28Z"/><path class="cls-6" d="M257.28,141.62,257,138c-6.13.42-.76,0-11.94.8l.25,3.64-2.19.15-1.7-25.19-1.53.1-.45-6.55-7.5.51-.65-7.29-.89-9.87.46,9.89.33,7.32-8.57.58.45,6.55-7.65.52c1.57,23.11.87,12.83,2.68,39.6l-3.44.23-.84-12.38-1.62.11-.26-4-1.21.08-.24-3.56-2.76.19L204.61,137l-3.78-3-3.34,3.49-2.79,2.91-2.76.18.24,3.56-1.2.08.27,4-1.62.11q1.23,18.15,2.42,36.3l-.92.06-.29-4.31-.79.05-.73-10.74-12.23.83.82,11.07a66.35,66.35,0,0,1,11.5,1.12L186.9,191l-1.06.08,2.23-7.37a67.36,67.36,0,0,0-11.5-1.13l-4.33-50.45h.06l-3.44-38.7,5.06-8.44c1.84-3.09,2.42-4.19-.2-5,.59-1.6.15-2.28-2.19-2.92.22-1-.27-1.4-2-1.84.13-.58-.1-.91-.9-1.19h0a4,4,0,0,0-3.73-3.51l-3.5-43-.49,0,2.33,43.1a4,4,0,0,0-3.22,4h0c-.76.39-.94.74-.73,1.3-1.62.67-2,1.18-1.7,2.09-2.24,1-2.58,1.68-1.77,3.2-2.5,1.15-1.78,2.16.47,5l6.39,8,3.58,76.44c-4.09,1.05-8.19,2.05-12.29,3.05l.39,5.73-2.51.17c-.65-9.58-1.33-19.18-2-28.8l-1.93.13-.4-5.79-20.64,1.4.39,5.79-1.93.13c1,15.43,1.91,30.55,3,46.05l42.24-2.86,21.18-1.44.93-.06,3-.2L264,189.24q-1.59-23.94-3.21-47.85Z"/><path class="cls-6" d="M344.61,156.79l-2-28.86.48-.43v-.06L343,126l-6.23.43-.3-4.47.28,0,.4-2.17-.06-.77-3.57-2.22-3.31-2.06L330,112l-.41-3.89.12,3.91.09,2.81-3,2.48L323.5,120l.05.78.68,2.1.29,0,.3,4.46-6.23.42.1,1.4.07.05.47.33,1.33,19.69-11.15.76-.87-12.75.85-.06.77-2.71v-.08l-.13-1.92-1.79.12-.64-9.39.85-.06.77-2.71v-.07l-.07-1.09-2.5-1.93-2.31-1.79-.16-1.52-.41-3.88.12,3.9,0,1.56-2,2-2.23,2.26h0l.08,1.08,1.12,2.65.85,0,.64,9.39-1.79.12.13,1.93,0,.07,1.09,2.58.86,0,.86,12.75-11.26.76-1.33-19.66.48-.44v-.05l-.09-1.4-6.17.41-.3-4.4h.23l.39-2.18,0-.77-3.57-2.22-3.32-2.06-.29-2.79-.41-3.89.12,3.91.08,2.81-3,2.48-3.25,2.68.05.78.68,2.1.34,0,.3,4.41-6.28.42.09,1.4.07,0,.47.33,2,28.91-4.74.32,1.79,26.87,91.43-6.2c-.6-9-1.14-17.94-1.75-26.87Z"/><path class="cls-6" d="M395.92,123.47l-4.83.59-1.67-1-2.75.18c-.16-.92-1.64-1.56-3.39-1.44s-3.12,1-3.16,1.89l-2.75.18-1.52,1.24-4.86.07c.62,9.18,1.62,18.18.86,27.35l-12.59,12.8,1.16,17.39,73.74-5c-11.92-9-23.64-17.91-35.4-27C396.77,141.7,396.54,132.65,395.92,123.47Zm-20.71,53.87c1.3-6.8,2.39-13.71,3.9-20.47,1.73-1.7,3.52-3.86,6.22-4.87,3.46.78,5.24,2.62,7.29,4.64,2.05,6.38,4,12.75,6.16,19.1Z"/><path class="cls-7" d="M228.84,124.65l2.45-.16.17,2.45-2.45.16-.17-2.45Zm1.43,21,2.45-.17.16,2.45-2.45.17-.16-2.45Zm9-.61,2.45-.17.17,2.45-2.45.17-.17-2.45Zm-4.54.3,2.45-.16.16,2.45-2.45.16-.16-2.45Zm-4.81-5,2.45-.17.16,2.45-2.45.17-.16-2.45Zm9-.61,2.45-.17.17,2.45-2.45.17-.17-2.45Zm-4.54.31,2.45-.17.16,2.45-2.45.16-.16-2.44Zm-4.81-4.94,2.45-.17.17,2.45-2.45.17-.17-2.45Zm4.45-.3,2.45-.17.17,2.45-2.45.17-.17-2.45Zm-4.8-4.94,2.45-.17.16,2.45-2.45.17-.16-2.45Zm9-.61,2.45-.17.17,2.45-2.45.17-.17-2.45Zm-4.54.31,2.45-.17.16,2.45-2.45.17-.16-2.45Zm4.19-5.53,2.45-.16.16,2.45-2.45.16-.16-2.45Zm-4.55.31,2.45-.16.17,2.45-2.45.16Z"/><path class="cls-7" d="M127.78,155.86l2.45-.16.17,2.45-2.45.16-.17-2.45Zm1.77,26,2.45-.17.16,2.45-2.44.17-.17-2.45Zm14-.95,2.45-.17.16,2.45-2.45.17-.16-2.45Zm.71,10.45,2.45-.16.16,2.45-2.45.16-.16-2.45Zm3.74-.25,2.45-.17.17,2.45-2.45.17-.17-2.45Zm-4.1-5,2.45-.16.17,2.45-2.45.16-.17-2.45Zm3.75-.25,2.44-.17.17,2.45-2.45.17-.16-2.45Zm-.36-5.22,2.45-.16.17,2.45-2.45.16-.17-2.45Zm-17,11.66,2.45-.16.16,2.44-2.45.17-.16-2.45Zm3.91-.26,2.45-.17.16,2.45-2.45.17-.16-2.45Zm-4.27-5,2.45-.16.17,2.44-2.45.17-.17-2.45Zm3.91-.26,2.45-.17.17,2.45-2.45.17-.17-2.45Zm-.35-5.22,2.45-.16.16,2.45-2.45.16-.16-2.45Zm8.32-26.73,2.45-.16.17,2.45-2.45.16-.17-2.45Zm1.43,21,2.45-.17.16,2.45-2.45.16-.16-2.44Zm3.74-.26,2.45-.16.17,2.44-2.45.17-.17-2.45Zm-4.1-5,2.45-.17.16,2.45-2.45.17-.16-2.45Zm3.74-.26,2.45-.16.17,2.45-2.45.16-.17-2.45Zm-4.1-5,2.45-.17.17,2.45-2.45.17-.17-2.45Zm3.75-.25,2.44-.17.17,2.45-2.45.16-.16-2.44Zm-4.1-5,2.45-.17.16,2.45-2.45.17-.16-2.45Zm3.74-.26,2.45-.16.16,2.45-2.44.16-.17-2.45Zm-.35-5.21,2.45-.17.16,2.45-2.45.17-.16-2.45Zm-16.32,22.2,2.45-.16.16,2.45-2.45.16-.16-2.45Zm3.91-.26,2.45-.17.16,2.45-2.45.17-.16-2.45Zm-4.27-5,2.45-.17.16,2.45L129,174l-.16-2.44Zm3.91-.27,2.45-.16.16,2.44-2.45.17-.16-2.45Zm-4.27-5,2.45-.17.17,2.45-2.45.17-.17-2.45Zm3.91-.27,2.45-.16.17,2.45-2.45.16-.17-2.45Zm-4.26-5,2.45-.17.16,2.45-2.45.17-.16-2.45Zm3.91-.27,2.44-.16.17,2.45-2.45.16-.16-2.45Zm-.36-5.21,2.45-.17.17,2.45-2.45.17Z"/><path class="cls-7" d="M248.49,183.62l2.45-.17.17,2.45-2.45.17-.17-2.45Zm8.64-5.85,2.45-.17.17,2.45-2.45.17-.17-2.45Zm-9.35-4.63,2.45-.17.17,2.45-2.45.17-.17-2.45Zm8.64-5.83,2.45-.16.17,2.45-2.45.16-.17-2.45Zm-9.33-4.48,2.44-.16.17,2.45-2.45.16-.16-2.45Zm-.36-5.31,2.44-.16.17,2.45-2.45.16-.16-2.45Zm9-.61,2.45-.16.16,2.45-2.45.16-.16-2.45Zm-9.35-4.62,2.45-.17.17,2.45-2.45.16-.17-2.44Zm9-.61,2.45-.17L258,154l-2.45.17-.17-2.45ZM246,147.05l2.44-.17.17,2.45-2.45.16-.16-2.44Zm9-.61,2.45-.17.16,2.45-2.45.16Z"/><rect class="cls-5" x="136.8" y="154.97" width="5.1" height="42.4" transform="translate(-11.6 9.83) rotate(-3.88)"/><path class="cls-7" d="M292.23,164.94l8.84-.59,1,14.66-8.84.6-1-14.67Zm37.57,12.72,10.54-.71-.71-10.49h0v-.1a5.26,5.26,0,1,0-10.5.72v.09h0l.72,10.49Zm-53.68,3.64,10.54-.71L286,170.1h0V170a5.26,5.26,0,0,0-10.5.71v.1h0l.71,10.49Zm-5.78-46,17.91-1.22.43,6.23-17.92,1.22-.42-6.23Zm51.9-3.52,17.92-1.21.42,6.23L322.66,138l-.42-6.23Zm.6,8.87,17.92-1.21.42,6.23-17.91,1.21-.43-6.23Zm-51.9,3.52,17.92-1.21.42,6.22-17.92,1.22-.42-6.23Zm42.43,19.37,8.84-.6,1,14.67-8.84.6-1-14.67Zm-10.54.72,8.84-.6,1,14.67-8.84.6Z"/><path class="cls-7" d="M305.13,129.56a2.09,2.09,0,1,0-2.23-2A2.09,2.09,0,0,0,305.13,129.56Z"/><path class="cls-7" d="M218.83,146.38l9.5-.65.17,2.52-9.5.64-.17-2.51Zm-1.43-21,9.51-.64.17,2.51-9.51.64-.17-2.51Zm.36,5.24,9.51-.64.17,2.51-9.51.64-.17-2.51Zm.35,5.24,9.51-.65.17,2.52-9.51.64-.17-2.51Zm.36,5.26,9.51-.64.17,2.51-9.51.64Z"/><path class="cls-7" d="M78.45,172.89l1.92-.13-.13-1.93-1.92.14.13,1.92Zm15.94,21.73,1.92-.13.13,1.92-1.92.13-.13-1.92Zm6.79-4.6,1.92-.13.13,1.92-1.92.13-.13-1.92Zm-3.57.24,1.92-.13.13,1.93-1.92.13-.13-1.93Zm-3.78-3.88,1.92-.13.14,1.92-1.93.14-.13-1.93Zm3.5-.24,1.92-.13.13,1.93-1.92.13-.13-1.93Zm3.29-4.34,1.93-.13.13,1.93-1.93.13-.13-1.93Zm-3.57.24,1.92-.13.13,1.93-1.92.13L97.05,182Zm-3.77-3.76,1.93-.13.13,1.93-1.93.13-.13-1.93Zm3.5-.24,1.92-.13.13,1.93-1.92.13L96.78,178ZM93,174.11l1.92-.13.13,1.92-1.92.13L93,174.11Zm7.07-.48,1.92-.13.13,1.92-1.92.13-.13-1.92ZM92.72,170l1.92-.13.13,1.93-1.92.13L92.72,170Zm7.07-.48,1.92-.13.13,1.93-1.92.13-.13-1.93Zm-3.57.24,1.92-.13.13,1.93-1.92.13-.13-1.93Zm-3.78-3.88,1.92-.13.14,1.93-1.93.13-.13-1.93Zm7.07-.48,1.92-.13.13,1.93-1.92.13-.13-1.93Zm-17.86,3.15,1.92-.13-.13-1.93-1.92.13.13,1.93ZM89,172.18l1.93-.14-.13-1.92-1.93.13.13,1.93Zm-3.57.24,1.93-.13-.13-1.93-1.93.13.13,1.93Zm-3.21,4.35,1.92-.13L84,174.72l-1.92.13.13,1.92Zm3.49-.23,1.93-.13-.13-1.93-1.93.13.13,1.93Zm3.85,3.85,1.93-.13-.13-1.92-1.93.13.13,1.92Zm-3.57.24,1.93-.13-.13-1.92-1.93.13.13,1.92Zm-3.23,4.24,1.93-.13-.13-1.92-1.93.13.13,1.92Zm3.5-.23,1.93-.13-.13-1.93-1.93.13.13,1.93ZM83,189.05l1.92-.13L84.83,187l-1.92.13.13,1.93Zm7.07-.48,1.92-.13-.13-1.93-1.92.13.13,1.93Zm-6.79,4.59,1.92-.13-.13-1.92-1.92.13.13,1.92Zm7.07-.48,1.92-.13-.13-1.92-1.93.13.14,1.92Zm-3.58.25,1.93-.13-.13-1.93-1.93.13.13,1.93Zm-3.21,4.35,1.92-.13-.13-1.92-1.92.13.13,1.92Zm7.06-.48,1.93-.13-.13-1.92-1.93.13.13,1.92Zm-15.5-19.55,1.92-.13L77,175.2l-1.92.13.13,1.92ZM79,181.11l1.92-.13-.13-1.93-1.93.13.14,1.93Zm-3.58.24,1.93-.13-.13-1.93-1.93.14.13,1.92Zm.28,4,1.92-.13-.13-1.92-1.93.13.14,1.92Zm3.85,3.93,1.92-.13-.13-1.92-1.92.13.13,1.92Zm.28,4.12,1.92-.13-.13-1.93-1.92.13.13,1.93Zm-3.57.24,1.92-.13-.13-1.92-1.92.13.13,1.92Zm3.85,3.88,1.92-.13-.13-1.93-1.92.13Z"/><path class="cls-7" d="M66.11,196.53,68,196.4l.13,1.93-1.93.13-.13-1.93Zm3.22-4.35,1.92-.13.13,1.92-1.92.13-.13-1.92Zm-3.78-3.88,1.93-.13.13,1.92-1.93.13-.13-1.92Zm3.5-.24,1.92-.13.14,1.92-1.93.13-.13-1.92Zm-.28-4.1,1.93-.13.13,1.93-1.93.13L68.77,184Zm-.27-4,1.93-.13.13,1.93-1.93.13L68.5,180Zm-6.67,10.52,1.92-.13-.13-1.92-1.92.13.13,1.92Zm.28,4.12,1.92-.13-.13-1.92-1.92.13.13,1.92Zm-3.57.24,1.92-.13-.13-1.92-1.92.13.13,1.92Zm-3.22,4.36,1.92-.13-.13-1.93-1.92.13.13,1.93Zm7.07-.48,1.92-.13-.13-1.93-1.92.13.13,1.93Zm-10.55.71,1.93-.13-.14-1.92-1.92.13Z"/><rect class="cls-5" x="50.78" y="176.24" width="6.15" height="1.93" transform="translate(-11.86 4.05) rotate(-3.88)"/><rect class="cls-5" x="47.21" y="176.63" width="1.93" height="1.93" transform="translate(-11.9 3.66) rotate(-3.88)"/><rect class="cls-5" x="50.54" y="172.68" width="6.15" height="1.93" transform="translate(-11.62 4.02) rotate(-3.88)"/><rect class="cls-5" x="46.97" y="173.06" width="1.93" height="1.93" transform="translate(-11.66 3.64) rotate(-3.88)"/><rect class="cls-5" x="51.05" y="180.22" width="6.15" height="1.93" transform="translate(-12.13 4.08) rotate(-3.88)"/><path class="cls-7" d="M38.6,199.58l1.92-.13.14,1.93-1.93.13-.13-1.93Zm3.22-4.35,1.92-.13.13,1.92-1.92.13-.13-1.92ZM38,191.35l1.93-.13.13,1.92-1.93.13L38,191.35Zm3.5-.24,1.92-.13.13,1.92-1.92.14-.13-1.93Zm-.28-4.1,1.93-.13.13,1.93-1.93.13L41.26,187ZM41,183l1.92-.13.14,1.93-1.93.13L41,183Zm-6.67,10.52,1.92-.13-.13-1.92-1.92.13.13,1.92Zm.28,4.12,1.92-.13-.13-1.92-1.92.13.13,1.92Zm.28,4.12,1.92-.13-.13-1.93-1.92.13Z"/><path class="cls-7" d="M431,134.15l2.31-.15.15,2.31-2.3.15-.16-2.31Zm1.34,19.8,2.31-.16.16,2.31-2.31.16-.16-2.31Zm-.34-5,2.31-.16.16,2.31-2.31.16L432,149Zm-.33-4.94,2.31-.16.15,2.31-2.31.16-.15-2.31Zm-.34-4.94,2.31-.16.16,2.31-2.31.16Z"/><path class="cls-7" d="M421.57,154.63l9-.61.16,2.37-9,.61-.16-2.37Zm-1.34-19.77,9-.61.16,2.37-9,.61-.16-2.37Zm.33,4.94,9-.61.16,2.37-9,.6-.16-2.36Zm.34,4.94,9-.61.16,2.36-9,.61-.16-2.36Zm.33,4.95,9-.6.16,2.36-9,.61Z"/><path class="cls-7" d="M451.89,155.77l1.92-.13.13,1.93-1.92.13-.13-1.93Zm-3.78-3.88,1.92-.13.13,1.93-1.92.13-.13-1.93Zm3.5-.24,1.92-.13.13,1.93-1.92.13-.13-1.93Zm-.28-4.09,1.92-.13.13,1.92-1.92.13-.13-1.92Zm-3.77-3.77,1.92-.13.13,1.93-1.92.13-.13-1.93Zm3.5-.23,1.92-.14.13,1.93-1.92.13-.13-1.92Zm-3.78-3.94,1.92-.13.13,1.92-1.92.13-.13-1.92ZM447,135.5l1.92-.13.13,1.93-1.92.13L447,135.5Zm3.49-.24,1.93-.13.13,1.93-1.92.13-.14-1.93Zm-3.77-3.88,1.92-.13.13,1.93-1.92.13-.13-1.93Zm-3.45,6.31,1.93-.13-.13-1.93-1.93.13.13,1.93Zm.56,8.21,1.93-.13-.13-1.92-1.93.13.13,1.92Zm.56,8.18,1.92-.13-.13-1.93-1.93.13.14,1.93Zm.27,4.11,1.93-.13-.13-1.92-1.93.13Z"/><path class="cls-7" d="M482.67,163.1l1.93-.13.13,1.93-1.93.13-.13-1.93Zm-3.57.24,1.93-.13.13,1.93-1.93.13-.13-1.93Zm-3.22,4.33,1.93-.13.13,1.93-1.93.13-.13-1.93Zm7.07-.47,1.92-.13L485,169l-1.92.13L483,167.2Zm-11.07-1.43,1.92-.13-.13-1.93-1.92.13.13,1.93Zm-3.57.24,1.92-.13L470.1,164l-1.92.13Z"/><path class="cls-7" d="M199.78,193.59c-2.32-47.28,6.53-47.88,10.6-.72Z"/><path class="cls-7" d="M194.88,148.81l1.12-.08.45,6.75-1.12.08-.45-6.75Zm-3.92.27,1.12-.08.45,6.75-1.12.08-.45-6.75ZM207.48,148l1.12-.08.46,6.75-1.12.08-.46-6.75Zm-8.26.56,1.12-.08.46,6.75-1.12.08-.46-6.75Zm12.18-.83,1.12-.08.46,6.75-1.12.08-.46-6.75Zm-8.26.56,1.12-.08.46,6.75-1.12.08Z"/><rect class="cls-5" x="196.86" y="140.38" width="8.78" height="1.46" transform="translate(-9.08 13.93) rotate(-3.88)"/><path class="cls-7" d="M195.06,144.22l.9-.06.21,3.12-.9.06-.21-3.12Zm1.68-.11.9-.07.21,3.12-.9.07-.21-3.12Zm-3.17.21.91-.06.21,3.12-.91.06-.21-3.12Zm13.33-.9.9-.06.21,3.12-.9.06-.21-3.12Zm-6.66.45.9-.06.21,3.12-.9.06-.21-3.12Zm9.82-.67.9-.06.22,3.12-.91.06-.21-3.12Zm-6.66.45.9-.06.21,3.12-.9.06-.21-3.12Zm-11.5.78.9-.06.21,3.12-.9.06-.21-3.12Zm13.33-.9.9-.06.21,3.12-.9.06-.21-3.12Zm-6.67.45.9-.06.22,3.12-.91.06-.21-3.12Zm9.83-.66.9-.07.21,3.12-.9.07-.21-3.12Zm-6.66.45.9-.06.21,3.12-.9.06Z"/><path class="cls-7" d="M135.4,153.76l4.74-.32-.32-4.72h0v0a2.37,2.37,0,0,0-4.72.32v.05h0Z"/><rect class="cls-5" x="130.38" y="148.76" width="1.93" height="1.93" transform="translate(-9.83 9.23) rotate(-3.88)"/><rect class="cls-5" x="142.56" y="147.94" width="1.93" height="1.93" transform="translate(-9.74 10.05) rotate(-3.88)"/><path class="cls-7" d="M167,123.44l1.68-.11.11,1.68-1.68.11-.11-1.68Zm-.49-7.18,1.68-.11.11,1.68-1.68.11-.11-1.68ZM166,109.2l1.68-.11.11,1.68-1.67.11L166,109.2Zm-.24-3.64,1.67-.11.12,1.68-1.68.11-.11-1.68Zm-.25-3.58,1.68-.12.11,1.68-1.67.11-.12-1.67Zm-.24-3.59,1.68-.12.11,1.68-1.68.11Z"/><path class="cls-7" d="M169.12,155l1.68-.12.12,1.68-1.68.11-.12-1.67Zm-.48-7.18,1.68-.12.11,1.68-1.68.11-.11-1.67Zm-.48-7.06,1.68-.12.11,1.68-1.68.11-.11-1.67Zm-.25-3.64,1.68-.12.12,1.68-1.68.12-.12-1.68Zm-.24-3.59,1.68-.11.11,1.67-1.68.12-.11-1.68Zm-.24-3.59,1.67-.11.12,1.67-1.68.12Z"/><path class="cls-7" d="M158.45,83.27l-1.59.11c-.13-1.82,1.47-1.93,1.59-.11Zm14.33-1-1.6.1c-.12-1.81,1.48-1.92,1.6-.1Zm-2.86.19-1.6.11c-.12-1.82,1.47-1.93,1.6-.11Zm-2.79.19-1.59.11c-.12-1.82,1.47-1.93,1.59-.11Zm-2.93.2-1.59.11c-.13-1.82,1.47-1.93,1.59-.11Zm-2.82.19-1.59.11C159.67,81.36,161.26,81.25,161.38,83.07Z"/><path class="cls-7" d="M159.93,77.43l-1.47.1c-.12-1.68,1.36-1.78,1.47-.1Zm10.57-.72-1.47.1c-.11-1.67,1.36-1.77,1.47-.1Zm-2.56.18-1.48.1c-.11-1.68,1.36-1.78,1.48-.1Zm-2.71.18-1.47.1c-.11-1.68,1.36-1.78,1.47-.1Zm-2.6.18-1.47.1C161.05,75.67,162.52,75.57,162.63,77.25Z"/><path class="cls-7" d="M241.07,171.69l2.45-.16.16,2.44-2.45.17-.16-2.45Zm-4.55.31,2.45-.17.17,2.45-2.45.17-.17-2.45Zm-4.81-5,2.45-.16.17,2.45-2.45.16-.17-2.45Zm9-.61,2.45-.16.16,2.45-2.45.16-.16-2.45ZM231,156.51l2.45-.16.17,2.45-2.45.16-.17-2.45Zm9-.61,2.45-.16.16,2.45-2.45.16L240,155.9Zm-4.55.31,2.45-.16.17,2.44-2.45.17-.17-2.45Zm4.19-5.52,2.45-.17.17,2.45-2.45.17-.17-2.45Zm-4.54.31,2.45-.17.16,2.45-2.44.17Z"/><path class="cls-7" d="M220.63,173l9.51-.64.17,2.51-9.51.64-.17-2.51Zm-1.42-21,9.51-.65.17,2.51-9.51.65-.17-2.51Zm.35,5.24,9.51-.65.17,2.51-9.51.65-.17-2.51Zm.72,10.5,9.5-.65.17,2.51-9.5.65Z"/><path class="cls-7" d="M388.93,129.53l-1.59.11c-.28-4,1.32-4.12,1.59-.11Zm-2.78.19-1.6.11c-.27-4,1.33-4.12,1.6-.11Zm-2.93.2-1.6.1c-.27-4,1.32-4.11,1.6-.1Zm-2.82.19-1.6.11C378.53,126.21,380.13,126.1,380.4,130.11Z"/><path class="cls-7" d="M426.55,176.11l-3,.15c-17.61-16.34-15.92-16.16,3-.15Zm-5.28.29c-16.64-16.6-18.49-16.75-3.16.19l3.16-.19Zm-5.86.38c-14.23-17.22-16.24-17.32-3.31.24l3.31-.24Zm-5.91.44c-11.92-17.82-14.08-17.89-3.47.27Z"/><path class="cls-7" d="M359.59,170.46c2.66-3.54,2.59-4-.09-1.32l.09,1.32Zm.35,5.19-.19-2.89c7-8.75,7.37-7.9.19,2.89Zm.33,4.87-.1-1.51c10.89-17.41,12.47-17.23,2.33,1.37l-2.23.14Zm4.83-.29,3.47-.2C376.64,160.61,374.51,161,365.1,180.23Z"/><path class="cls-7" d="M334.62,126.21l-1.6.11c-.34-5,1.26-5.13,1.6-.11Zm-2.93.2-1.6.11c-.34-5,1.25-5.14,1.6-.11Zm-2.82.19-1.6.11C326.93,121.68,328.53,121.58,328.87,126.6Z"/><path class="cls-7" d="M282.75,129.73l-1.6.11c-.34-5,1.26-5.14,1.6-.11Zm-2.93.2-1.6.11c-.34-5,1.26-5.14,1.6-.11Zm-2.82.19-1.6.11C275.06,125.2,276.66,125.09,277,130.12Z"/></g></svg>