<svg id="Ñëîé_1" data-name="Ñëîé 1" xmlns="http://www.w3.org/2000/svg" xmlns:xlink="http://www.w3.org/1999/xlink" viewBox="0 0 595 208.6"><defs><style>.cls-1{fill:url(#linear-gradient);}.cls-2{opacity:0.2;}.cls-3{fill:#fff;}.cls-4{fill:none;}.cls-5,.cls-6{fill:#1c4975;}.cls-5{fill-rule:evenodd;}</style><linearGradient id="linear-gradient" y1="104.3" x2="595" y2="104.3" gradientUnits="userSpaceOnUse"><stop offset="0" stop-color="#387eb8"/><stop offset="1" stop-color="#366994"/></linearGradient></defs><title>My Tehran - Shrinked B</title><polygon class="cls-1" points="0 208.6 595 168.42 595 0 0 0 0 208.6"/><polygon class="cls-2" points="2.93 179.28 10.32 172.66 17.88 169.53 23.93 167.34 30.64 168.8 36.74 165.11 40.61 166.07 64.33 146.45 77.22 149.23 90 139.08 94.79 142.36 101.94 139.83 106.71 141.55 118.91 136.49 130.1 137.38 141.4 133.6 161.99 136.69 193.05 120.56 205.03 124.64 222.83 114.95 241.57 114.91 270.87 106.51 280.05 108.89 291.66 114.02 299.55 114.97 318.32 119.7 329.32 115.68 361.43 126.79 384.95 128 396.77 134.77 407.91 134.85 421.07 144.09 425.56 141.74 432.99 143.28 436.42 141.82 450.7 148.86 455.07 148.58 455.16 149.97 455.74 149.93 455.7 149.42 453.73 129.08 439.62 127.88 423.52 113.81 419.05 112.94 414.78 106.02 408.5 108.36 402.15 105.51 398.55 106.98 371.87 97.19 360.55 97.82 346.87 93.97 343.54 95.42 336.32 93.87 331.96 96.21 319.54 92.82 308.88 95.18 297.5 92.95 275 94.33 245.72 88.53 235.03 92.53 216.6 85.3 198.56 87.75 169.23 83.33 160.71 86.91 149.7 86.15 142.24 88.14 124.79 95.33 113.67 92.81 84.73 115.47 62.24 119.81 51.76 128.08 41.05 129.64 29.6 140.55 24.96 138.82 18.34 146.15 14.85 145.16 1.81 150.82 0 154.71 0 179.62 2.93 179.28"/><polygon class="cls-2" points="450.7 148.86 436.42 141.82 432.99 143.28 425.56 141.74 421.07 144.09 407.91 134.85 396.77 134.77 384.95 128 361.43 126.79 329.32 115.68 318.32 119.7 299.55 114.97 291.66 114.02 280.05 108.89 270.87 106.51 241.57 114.91 222.83 114.95 205.03 124.64 193.05 120.56 161.99 136.69 141.4 133.6 130.1 137.38 118.91 136.49 106.71 141.55 101.94 139.83 94.79 142.36 90 139.08 77.22 149.23 64.33 146.45 40.61 166.07 36.74 165.11 30.64 168.8 23.93 167.34 17.88 169.53 10.32 172.66 2.93 179.28 0 179.62 0 180.82 34.05 178.51 455.16 149.97 455.07 148.58 450.7 148.86"/><polygon class="cls-2" points="450.7 148.86 436.42 141.82 432.99 143.28 425.56 141.74 421.07 144.09 407.91 134.85 396.77 134.77 384.95 128 361.43 126.79 329.32 115.68 318.32 119.7 299.55 114.97 291.66 114.02 280.05 108.89 270.87 106.51 241.57 114.91 222.83 114.95 205.03 124.64 193.05 120.56 161.99 136.69 141.4 133.6 130.1 137.38 118.91 136.49 106.71 141.55 101.94 139.83 94.79 142.36 90 139.08 77.22 149.23 64.33 146.45 40.61 166.07 36.74 165.11 30.64 168.8 23.93 167.34 17.88 169.53 10.32 172.66 2.93 179.28 0 179.62 0 180.82 34.05 178.51 455.16 149.97 455.07 148.58 450.7 148.86"/><polygon class="cls-2" points="0 180.82 0 182.24 455.26 151.38 455.16 149.97 34.05 178.51 0 180.82"/><polygon class="cls-3" points="461.84 156.62 461.6 153.08 0 184.37 0 187.93 461.84 156.62"/><path class="cls-4" d="M340.53,133.52c-2.39.89-4,2.8-5.51,4.31-1.33,6-2.29,12.07-3.44,18.08l20.83-1.41c-1.89-5.61-3.63-11.25-5.45-16.88C345.16,135.83,343.59,134.2,340.53,133.52Z" transform="translate(0 0)"/><path class="cls-3" d="M388.36,141.94l34.82-2.28-1-14.28-3.32.22-.21-3.1-1.11.07-.38-4.31-.79-8.72.41,8.75.19,4.32-.87.06.21,3.11-.79,0-.22-3.12-7.2.49.21,3.12-3.06.21-.93-13.6-4.68.32-.12-1.74h.05l.14-.77,0-.27-1.26-.79-1.27-.79-1.15,1-.53.44-.3-3.34-.78-8.71.4,8.74.16,3.42-.7-.43-1.26-.78-1.15.95-1.15,1,0,.27.21.66.13,1.82-4.59.31Z" transform="translate(0 0)"/><path class="cls-3" d="M113.55,127l15.28-1-.13-1.89-.95.07-.09-1.35-.6,0a8.54,8.54,0,0,0-4.4-5.12h.06c-.06-.83-1-1.21-2-1.2l-.5-5h-.15l.18,5c-1,.13-1.82.63-1.76,1.46h.06a8.63,8.63,0,0,0-3.68,5.67l-.59,0,.09,1.35-1,.07Z" transform="translate(0 0)"/><polygon class="cls-3" points="107.56 150.31 106.41 133.29 103.29 133.5 103.17 131.72 95.18 132.26 93.93 134.13 91.94 134.27 93.84 162.31 92.66 162.38 91.27 141.92 77.26 142.87 77.03 139.51 63.93 152.49 64.99 168.16 63.75 168.25 62.76 153.67 52.88 164.3 52.88 164.24 38.47 179.63 111.22 174.7 109.58 150.17 107.56 150.31"/><polygon class="cls-3" points="52.67 161.24 51.87 149.34 48.71 149.55 48.62 148.2 42.7 148.6 42.8 149.95 39.57 150.17 40.2 159.53 38.1 159.67 37.95 157.53 32.99 157.86 33.13 160.01 32.58 160.05 32.44 157.91 30.68 158.03 30.83 160.17 28.54 160.32 29.31 171.71 23.94 172.07 24.25 176.74 0 178.39 0 182.24 35.26 179.85 52.67 161.24"/><path class="cls-3" d="M455.57,147.51l-23.9,1.62-.53-7.74c-15,1-30,1.94-45.12,3-.64-9.77-1.22-19.39-1.88-29.12l-2.53.17-.12-1.75-3,.21.09-.53,0-.27-1.26-.79-.22-.14-.35-3.93L376,99.48l.4,8.74.16,3.56-.48-.3-1.15,1-1.15.95,0,.28.17.51-1,.07L373,116l-3.06.21,1.31,19.41-5.19.35.3,4.5L387,156l68.8-4.67Z" transform="translate(0 0)"/><path class="cls-3" d="M227.36,124.35l-.21-3.21c-5.43.37-.68,0-10.56.7l.22,3.22-1.93.14-1.51-22.27L212,103l-.39-5.79-6.63.45-.58-6.44-.78-8.72.4,8.74.3,6.46-7.58.52.39,5.79-6.75.46c1.38,20.42.77,11.34,2.37,35l-3.05.21L189,128.75l-1.42.09-.24-3.49-1.06.07-.22-3.15-2.44.17-2.79-2.22-3.33-2.65-2.95,3.08-2.47,2.57-2.44.17.22,3.14-1.06.07.23,3.5-1.43.1c.73,10.69,1.42,21.38,2.14,32.07l-.82.06-.25-3.81-.7,0-.64-9.49-10.81.73.73,9.78a59.77,59.77,0,0,1,10.16,1l-2.22,7.36-.94.07,2-6.52a59.75,59.75,0,0,0-10.16-1l-3.82-44.59h.05l-3-34.19,4.46-7.46c1.64-2.73,2.15-3.7-.17-4.42.52-1.42.13-2-1.94-2.58.2-.85-.24-1.24-1.74-1.63.12-.52-.08-.8-.79-1h0a3.53,3.53,0,0,0-3.3-3.11l-3.1-38-.42,0,2.06,38.08a3.53,3.53,0,0,0-2.85,3.53h0c-.67.33-.83.65-.64,1.14-1.44.59-1.82,1-1.51,1.85-2,.84-2.28,1.48-1.56,2.82-2.21,1-1.57,1.92.42,4.4l5.64,7.06L147,149.93c-3.61.92-7.23,1.81-10.85,2.7l.34,5.06-2.22.15q-.87-12.71-1.75-25.45l-1.71.11-.35-5.12-18.24,1.24.35,5.12-1.71.12c.92,13.63,1.69,27,2.61,40.69L150.74,172l18.73-1.27.81-.05,2.66-.18,60.39-4.1q-1.41-21.13-2.84-42.28Z" transform="translate(0 0)"/><path class="cls-3" d="M304.54,137.75l-1.73-25.5.43-.39v0l-.08-1.24-5.5.37-.27-3.94.25,0,.35-1.92-.05-.68-3.15-2-2.93-1.83-.26-2.46-.37-3.44.11,3.46.07,2.48-2.64,2.2-2.88,2.37.05.68.6,1.86.25,0,.27,3.94-5.5.37.08,1.24.06,0,.42.3,1.18,17.4-9.86.67-.77-11.27.76,0,.67-2.4v-.06L274,116.2l-1.58.11-.57-8.3.76-.05.67-2.4v-.06l-.07-1-2.2-1.71-2.05-1.57-.14-1.35-.36-3.43.1,3.45.05,1.37-1.79,1.82-2,2h0l.06,1,1,2.35.75-.06.57,8.31-1.59.1.11,1.7,0,.07,1,2.28.75,0,.77,11.27-10,.67-1.17-17.37.42-.39v0l-.08-1.23L252,114l-.26-3.9h.2l.35-1.92-.05-.68-3.15-2-2.93-1.83-.26-2.46-.37-3.44.11,3.45.07,2.49L243.05,106l-2.88,2.37.05.69.6,1.85.3,0,.26,3.89-5.54.38.08,1.24.06,0,.42.29,1.73,25.55-4.2.29,1.59,23.73,80.8-5.47c-.53-7.94-1-15.85-1.54-23.74Z" transform="translate(0 0)"/><path class="cls-3" d="M349.88,108.3l-4.26.53-1.48-.91-2.43.17c-.14-.82-1.45-1.38-3-1.28s-2.77.84-2.8,1.67l-2.43.16-1.34,1.1-4.3.06c.55,8.11,1.43,16.06.76,24.17l-11.12,11.31,1,15.37,65.17-4.42c-10.54-7.94-20.89-15.83-31.29-23.87C350.63,124.41,350.43,116.41,349.88,108.3Zm-18.3,47.61c1.15-6,2.11-12.11,3.44-18.08,1.53-1.51,3.12-3.42,5.51-4.31,3.06.68,4.63,2.31,6.43,4.1,1.82,5.63,3.56,11.27,5.45,16.88Z" transform="translate(0 0)"/><path class="cls-5" d="M202.23,109.35l2.17-.14.15,2.16-2.17.15-.15-2.17Zm1.26,18.56,2.17-.15.14,2.17-2.16.15-.15-2.17Zm7.95-.54,2.16-.14.15,2.16-2.16.15-.15-2.17Zm-4,.28,2.17-.15.15,2.16-2.17.15-.15-2.16Zm-4.25-4.43,2.17-.15.15,2.17-2.17.14-.15-2.16Zm8-.54,2.17-.15.14,2.17-2.16.15-.15-2.17Zm-4,.27,2.16-.14.15,2.16-2.17.15-.14-2.17Zm-4.25-4.36,2.16-.15.15,2.17-2.16.15-.15-2.17Zm3.93-.27,2.17-.14.14,2.16-2.16.15-.15-2.17ZM202.55,114l2.16-.15.15,2.17-2.17.14-.14-2.16Zm7.94-.54,2.17-.15.14,2.17-2.16.14-.15-2.16Zm-4,.27,2.16-.14.15,2.16-2.16.15-.15-2.17Zm3.7-4.88,2.17-.14.14,2.16-2.16.15-.15-2.17Zm-4,.28,2.16-.15.15,2.16-2.17.15Z" transform="translate(0 0)"/><path class="cls-5" d="M112.93,136.93l2.16-.15.15,2.17-2.17.15-.14-2.17Zm1.56,23,2.16-.15.15,2.16-2.17.15-.14-2.16Zm12.37-.84L129,159l.15,2.17-2.17.14-.14-2.16Zm.62,9.24,2.17-.15.14,2.17-2.16.14-.15-2.16Zm3.31-.23L133,168l.14,2.16-2.16.15-.15-2.17Zm-3.62-4.4,2.16-.15.15,2.16-2.16.15-.15-2.16Zm3.31-.23,2.16-.14.15,2.16-2.17.15-.14-2.17Zm-.31-4.61,2.16-.14.15,2.16-2.17.15-.14-2.17Zm-15.06,10.31,2.17-.15.14,2.16-2.16.15-.15-2.16Zm3.46-.24,2.16-.14.15,2.16-2.17.15-.14-2.17Zm-3.77-4.39,2.16-.15.15,2.16-2.17.15-.14-2.16Zm3.45-.24,2.17-.15.14,2.17-2.16.15-.15-2.17Zm-.31-4.61,2.16-.14.15,2.16-2.16.15-.15-2.17Zm7.36-23.62,2.16-.14.15,2.16-2.17.15-.14-2.17Zm1.26,18.56,2.16-.14.15,2.16-2.17.15-.14-2.17Zm3.3-.22,2.17-.15.14,2.17-2.16.14-.15-2.16ZM126.24,150l2.16-.15.15,2.17-2.17.15-.14-2.17Zm3.31-.22,2.16-.15.15,2.16-2.17.15-.14-2.16Zm-3.63-4.41,2.17-.14.14,2.16-2.16.15-.15-2.17Zm3.31-.22,2.17-.15.14,2.16-2.16.15-.15-2.16Zm-3.62-4.41,2.16-.15.15,2.17-2.16.14-.15-2.16Zm3.31-.22,2.16-.15.15,2.16-2.17.15-.14-2.16Zm-.31-4.61,2.16-.15.15,2.17-2.17.14-.14-2.16Zm-14.43,19.62,2.17-.15.14,2.17-2.16.15-.15-2.17Zm3.46-.23,2.16-.15.15,2.16-2.17.15-.14-2.16Zm-3.77-4.46,2.16-.15.15,2.17L114,153l-.14-2.16Zm3.45-.23,2.16-.15.15,2.16-2.16.15-.15-2.16Zm-3.77-4.4,2.17-.15.14,2.17-2.16.14-.15-2.16Zm3.46-.23,2.16-.15.15,2.16-2.17.15-.14-2.16Zm-3.77-4.4,2.16-.15.15,2.17-2.17.14-.14-2.16Zm3.45-.23,2.17-.15.14,2.16-2.16.15-.15-2.16Zm-.31-4.61,2.16-.15.15,2.16-2.16.15Z" transform="translate(0 0)"/><path class="cls-5" d="M219.6,161.46l2.16-.15.15,2.17-2.16.14-.15-2.16Zm7.63-5.17,2.17-.15.14,2.17-2.16.14-.15-2.16ZM219,152.2l2.17-.15.14,2.16-2.16.15L219,152.2Zm7.64-5.15,2.16-.15.15,2.17-2.17.14-.14-2.16Zm-8.26-4,2.17-.15.15,2.17-2.17.15-.15-2.17ZM218,138.4l2.16-.15.15,2.17-2.17.14L218,138.4Zm7.94-.54,2.17-.15.14,2.17-2.16.14-.15-2.16Zm-8.26-4.09,2.17-.15.14,2.17-2.16.14-.15-2.16Zm7.95-.54,2.16-.14.15,2.16-2.16.15-.15-2.17Zm-8.26-4.09,2.16-.15.15,2.17-2.16.14-.15-2.16Zm8-.54,2.16-.15.15,2.17-2.17.14Z" transform="translate(0 0)"/><rect class="cls-6" x="120.89" y="136.14" width="4.5" height="37.47" transform="translate(-10.19 8.68) rotate(-3.88)"/><path class="cls-5" d="M258.25,145l7.81-.53.88,13-7.81.53-.88-13Zm33.2,11.24,9.32-.64-.63-9.27h0v-.09a4.65,4.65,0,0,0-9.28.63v.08h0l.63,9.27ZM244,159.41l9.32-.63-.63-9.27h0v-.08a4.65,4.65,0,1,0-9.28.63v.08h0l.63,9.27Zm-5.1-40.68,15.83-1.07.37,5.5-15.83,1.08-.37-5.51Zm45.86-3.11,15.84-1.07.37,5.5-15.83,1.08-.38-5.51Zm.53,7.84,15.84-1.07.37,5.5L285.68,129l-.38-5.51Zm-45.86,3.11,15.83-1.07.37,5.5-15.83,1.08-.37-5.51Zm37.49,17.12,7.82-.53.87,13-7.81.53-.88-13Zm-9.32.63,7.82-.53.87,13-7.81.53Z" transform="translate(0 0)"/><path class="cls-5" d="M269.65,113.68a1.84,1.84,0,1,0-2-1.71A1.85,1.85,0,0,0,269.65,113.68Z" transform="translate(0 0)"/><path class="cls-5" d="M193.38,128.55l8.4-.57.15,2.22-8.4.57-.15-2.22ZM192.12,110l8.41-.57.15,2.22-8.41.57-.15-2.22Zm.32,4.63,8.4-.57.15,2.22-8.4.57-.15-2.22Zm.31,4.63,8.4-.57.15,2.22-8.4.57-.15-2.22Zm.32,4.65,8.4-.57.15,2.22-8.4.57Z" transform="translate(0 0)"/><path class="cls-5" d="M69.33,152l1.7-.12-.12-1.7-1.7.12.12,1.7Zm14.08,19.2,1.7-.12.12,1.7-1.7.12-.12-1.7Zm6-4.06,1.7-.12.12,1.7-1.7.12-.12-1.7Zm-3.15.21,1.7-.11.11,1.7-1.7.11-.11-1.7Zm-3.34-3.43,1.7-.11.12,1.7L83,165.6l-.11-1.7Zm3.09-.21,1.7-.11.12,1.7-1.7.11-.12-1.7Zm2.91-3.84,1.7-.11.12,1.7-1.7.12-.12-1.71Zm-3.16.22,1.71-.12.11,1.7-1.7.12-.12-1.7Zm-3.33-3.33,1.71-.11.11,1.7-1.7.11-.12-1.7Zm3.09-.21,1.71-.11.11,1.7-1.7.11-.12-1.7Zm-3.34-3.47,1.71-.12.11,1.7-1.7.12-.12-1.7Zm6.25-.43,1.7-.11.12,1.7-1.7.11-.12-1.7Zm-6.49-3.21,1.7-.12.11,1.7-1.7.12-.11-1.7Zm6.24-.43,1.71-.11.11,1.7-1.7.11-.12-1.7Zm-3.15.22,1.7-.12.11,1.7-1.7.12-.11-1.7Zm-3.34-3.43,1.7-.12.12,1.7-1.7.12-.12-1.7Zm6.25-.43,1.7-.11.11,1.7-1.7.11-.11-1.7Zm-15.79,2.78,1.7-.11-.11-1.7-1.7.11.11,1.7Zm6.5,3.22,1.7-.12-.12-1.7-1.7.12.12,1.7Zm-3.16.21,1.7-.11-.11-1.71-1.7.12.11,1.7Zm-2.84,3.85,1.7-.11-.12-1.71-1.7.12.12,1.7Zm3.09-.21,1.7-.11-.12-1.7-1.7.11.12,1.7Zm3.4,3.41,1.7-.12-.12-1.7-1.7.12.12,1.7Zm-3.16.21,1.7-.11-.11-1.7-1.7.11.11,1.7Zm-2.85,3.75,1.7-.12-.11-1.7-1.7.12.11,1.7Zm3.09-.21,1.7-.12-.11-1.7-1.7.12.11,1.7Zm-2.84,3.9,1.7-.12-.11-1.7-1.7.11.11,1.71Zm6.25-.43,1.7-.11-.12-1.7-1.7.11.12,1.7Zm-6,4.06,1.7-.11-.12-1.7-1.7.11.12,1.7Zm6.25-.42,1.7-.11-.12-1.71-1.7.12.12,1.7Zm-3.16.21,1.7-.11-.12-1.7-1.7.11.12,1.7Zm-2.84,3.85,1.7-.11-.12-1.7-1.7.11.12,1.7Zm6.24-.42,1.7-.11-.11-1.71-1.7.12.11,1.7Zm-13.7-17.28,1.7-.11L68,154l-1.7.11.12,1.7Zm3.4,3.41,1.7-.11-.12-1.71-1.7.12.12,1.7Zm-3.16.21,1.7-.11-.11-1.7-1.7.11.11,1.7ZM66.9,163l1.7-.12-.11-1.7-1.7.12.11,1.7Zm3.41,3.47,1.7-.11-.12-1.7-1.7.11.12,1.7Zm.25,3.64,1.7-.11-.12-1.7-1.7.11.12,1.7Zm-3.16.22,1.7-.12L69,168.5l-1.7.12.12,1.7Zm3.4,3.42,1.7-.11-.11-1.7-1.7.11Z" transform="translate(0 0)"/><path class="cls-5" d="M58.42,172.87l1.71-.11.11,1.7-1.7.11-.12-1.7ZM61.27,169l1.7-.11.11,1.7-1.7.12L61.27,169Zm-3.34-3.43,1.7-.11.12,1.7-1.7.12-.12-1.71Zm3.09-.21,1.7-.11.12,1.7-1.7.12L61,165.38Zm-.24-3.62,1.7-.11.11,1.7-1.7.11-.11-1.7Zm-.24-3.53,1.7-.12.11,1.7-1.7.12-.11-1.7Zm-5.9,9.3,1.7-.12-.12-1.7-1.7.12.12,1.7Zm.25,3.63,1.7-.11-.12-1.7-1.7.11.12,1.7Zm-3.16.22,1.7-.12-.11-1.7-1.71.12.12,1.7Zm-2.84,3.85,1.7-.12-.12-1.7-1.7.12.12,1.7Zm6.24-.43,1.7-.11-.11-1.7-1.7.11.11,1.7Zm-9.32.64,1.7-.12-.11-1.7-1.7.12Z" transform="translate(0 0)"/><rect class="cls-6" x="44.88" y="154.94" width="5.43" height="1.7" transform="translate(-10.43 3.58) rotate(-3.88)"/><rect class="cls-6" x="41.72" y="155.28" width="1.7" height="1.7" transform="translate(-10.46 3.24) rotate(-3.88)"/><rect class="cls-6" x="44.66" y="151.79" width="5.43" height="1.7" transform="translate(-10.21 3.55) rotate(-3.88)"/><rect class="cls-6" x="41.51" y="152.13" width="1.7" height="1.7" transform="translate(-10.25 3.22) rotate(-3.88)"/><rect class="cls-6" x="45.11" y="158.45" width="5.43" height="1.7" transform="translate(-10.66 3.6) rotate(-3.88)"/><path class="cls-5" d="M34.11,175.57l1.7-.12.12,1.7-1.7.12-.12-1.7ZM37,171.72l1.7-.11.11,1.7-1.7.11-.11-1.7Zm-3.34-3.43,1.7-.12.11,1.71-1.7.11-.11-1.7Zm3.09-.21,1.7-.11.12,1.7-1.71.11-.11-1.7Zm-.25-3.62,1.7-.12.12,1.7-1.7.12-.12-1.7Zm-.24-3.54,1.7-.11.12,1.7-1.7.11-.12-1.7Zm-5.89,9.3,1.7-.11-.12-1.7-1.7.11.12,1.7Zm.24,3.64,1.7-.12-.11-1.7-1.7.12.11,1.7Zm.25,3.64,1.7-.12-.11-1.7-1.7.12Z" transform="translate(0 0)"/><path class="cls-5" d="M380.89,117.75l2-.14.14,2-2,.14-.14-2Zm1.19,17.49,2-.14.14,2-2,.14-.14-2Zm-.3-4.42,2-.14.14,2-2,.14-.14-2Zm-.3-4.36,2-.14.14,2-2,.14-.14-2Zm-.29-4.37,2-.14.13,2-2,.14Z" transform="translate(0 0)"/><path class="cls-5" d="M372.55,135.84l7.92-.53.14,2.09-7.92.54-.14-2.1Zm-1.19-17.47,7.92-.54.14,2.1-7.92.53-.14-2.09Zm.3,4.36,7.92-.53.14,2.09-7.92.54-.14-2.1Zm.29,4.37,7.92-.54.15,2.09-7.92.54L372,127.1Zm.3,4.38,7.92-.54.14,2.1-7.92.53Z" transform="translate(0 0)"/><path class="cls-5" d="M399.34,136.85l1.7-.11.12,1.7-1.7.11-.12-1.7ZM396,133.42l1.7-.11.12,1.7-1.7.11-.12-1.7Zm3.09-.21,1.7-.11.12,1.7-1.7.11-.12-1.7Zm-.24-3.62,1.7-.11.11,1.7-1.7.11-.11-1.7Zm-3.33-3.33,1.7-.11.11,1.7-1.7.12-.11-1.71Zm3.09-.21,1.7-.11.12,1.7-1.71.12-.11-1.71Zm-3.34-3.47,1.7-.12.11,1.7-1.7.12-.11-1.7Zm-.25-3.64,1.7-.12.12,1.7-1.7.12-.12-1.7Zm3.09-.21,1.7-.12.12,1.7-1.7.12-.12-1.7Zm-3.34-3.43,1.71-.12.11,1.7-1.7.12-.12-1.7Zm-3,5.57,1.7-.12-.11-1.7-1.7.12.11,1.7Zm.49,7.26,1.7-.11-.11-1.71-1.7.12.11,1.7Zm.49,7.22,1.7-.11-.11-1.7-1.7.11.11,1.7ZM393,139l1.7-.11-.12-1.7-1.7.11Z" transform="translate(0 0)"/><path class="cls-5" d="M426.55,143.33l1.7-.12.11,1.7-1.7.12-.11-1.7Zm-3.16.21,1.7-.11.12,1.7-1.7.11-.12-1.7Zm-2.84,3.83,1.7-.12.11,1.71-1.7.11-.11-1.7Zm6.24-.42,1.7-.12.12,1.7-1.7.12-.12-1.7ZM417,145.68l1.7-.11-.11-1.7-1.71.11.12,1.7Zm-3.16.22,1.7-.12-.11-1.7-1.7.12Z" transform="translate(0 0)"/><path class="cls-5" d="M176.55,170.27c-2.05-41.78,5.77-42.31,9.37-.63Z" transform="translate(0 0)"/><path class="cls-5" d="M172.22,130.7l1-.07.4,6-1,.06-.4-6Zm-3.47.23,1-.06.41,6-1,.07-.41-6Zm14.6-1,1-.06.41,6-1,.07-.41-6Zm-7.3.5,1-.07.41,6-1,.06-.41-6Zm10.77-.73,1-.07.4,6-1,.06-.4-6Zm-7.3.49,1-.06.4,6-1,.07Z" transform="translate(0 0)"/><rect class="cls-6" x="173.97" y="123.25" width="7.76" height="1.29" transform="translate(-7.97 12.31) rotate(-3.88)"/><path class="cls-5" d="M172.38,126.64l.8,0,.18,2.75-.79.06-.19-2.76Zm1.48-.1.8-.05.18,2.75-.79.06-.19-2.76Zm-2.8.19.8,0,.19,2.75-.8.06-.19-2.76Zm11.78-.8.8-.05.19,2.76-.8.05-.19-2.76Zm-5.89.4.8,0,.19,2.75-.8.06-.19-2.76Zm8.69-.59.79,0,.19,2.76-.8.05-.18-2.76Zm-5.89.4.8,0,.18,2.76-.8.05-.18-2.76Zm-10.16.69.79,0,.19,2.75-.8.06-.18-2.76Zm11.77-.8.8,0,.19,2.76-.8,0-.19-2.76Zm-5.89.4.8-.05.19,2.75-.8.06-.19-2.76Zm8.69-.59.79,0,.19,2.76-.8,0-.18-2.76Zm-5.89.4.8,0,.18,2.76-.79.05Z" transform="translate(0 0)"/><path class="cls-5" d="M119.66,135.08l4.19-.29-.29-4.17h0v0a2.09,2.09,0,1,0-4.17.28v0h0Z" transform="translate(0 0)"/><rect class="cls-6" x="115.22" y="130.66" width="1.7" height="1.7" transform="translate(-8.63 8.15) rotate(-3.88)"/><rect class="cls-6" x="125.98" y="129.93" width="1.7" height="1.7" transform="translate(-8.55 8.88) rotate(-3.88)"/><path class="cls-5" d="M147.57,108.28l1.48-.1.1,1.48-1.48.1-.1-1.48Zm-.43-6.34,1.48-.1.1,1.48-1.48.1-.1-1.48Zm-.42-6.24,1.48-.1.1,1.48-1.48.1-.1-1.48Zm-.22-3.22,1.48-.1.1,1.48-1.48.1-.1-1.48Zm-.22-3.17,1.49-.1.1,1.48-1.49.1-.1-1.48Zm-.21-3.17,1.48-.1.1,1.48-1.48.1Z" transform="translate(0 0)"/><path class="cls-5" d="M149.46,136.15l1.48-.1.1,1.48-1.48.1-.1-1.48ZM149,129.8l1.48-.1.1,1.49-1.48.1-.1-1.49Zm-.42-6.24,1.48-.1.1,1.49-1.48.1-.1-1.49Zm-.22-3.21,1.48-.1.1,1.48-1.48.1-.1-1.48Zm-.22-3.17,1.49-.1.1,1.48-1.49.1-.1-1.48ZM148,114l1.48-.11.1,1.49-1.48.1Z" transform="translate(0 0)"/><path class="cls-5" d="M140,72.78l-1.41.09c-.11-1.6,1.3-1.7,1.41-.09Zm12.66-.86-1.41.09c-.11-1.6,1.3-1.7,1.41-.09Zm-2.53.17-1.41.1c-.11-1.61,1.3-1.71,1.41-.1Zm-2.46.17-1.41.09c-.11-1.6,1.3-1.7,1.41-.09Zm-2.59.17-1.41.1c-.11-1.61,1.3-1.7,1.41-.1Zm-2.49.17-1.41.1C141.1,71.09,142.51,71,142.62,72.6Z" transform="translate(0 0)"/><path class="cls-5" d="M141.33,67.62l-1.3.09c-.1-1.49,1.2-1.57,1.3-.09Zm9.35-.63-1.3.08c-.1-1.48,1.2-1.57,1.3-.08Zm-2.27.15-1.3.09c-.1-1.48,1.2-1.57,1.3-.09ZM146,67.3l-1.3.09c-.1-1.48,1.2-1.57,1.3-.09Zm-2.3.16-1.3.09C142.32,66.06,143.62,66,143.72,67.46Z" transform="translate(0 0)"/><path class="cls-5" d="M213,150.92l2.16-.15.15,2.17-2.17.14-.14-2.16Zm-4,.27,2.16-.14.15,2.16-2.16.15-.15-2.17Zm-4.25-4.42,2.16-.15.15,2.16-2.16.15-.15-2.16Zm7.95-.54,2.16-.15.15,2.17-2.17.14-.14-2.16Zm-8.58-8.72,2.17-.15.14,2.16-2.16.15-.15-2.16Zm8-.54,2.16-.15.15,2.17-2.16.14-.15-2.16Zm-4,.27,2.17-.15.15,2.17-2.17.14-.15-2.16Zm3.71-4.88,2.16-.15.15,2.17-2.17.14-.14-2.16Zm-4,.27,2.17-.14.14,2.16-2.16.15Z" transform="translate(0 0)"/><path class="cls-5" d="M195,152.1l8.4-.57.15,2.22-8.4.57L195,152.1Zm-1.26-18.54,8.4-.57.15,2.22-8.4.57-.15-2.22Zm.31,4.63,8.41-.57.15,2.22-8.41.57-.15-2.22Zm.63,9.28,8.4-.57.16,2.22-8.41.57Z" transform="translate(0 0)"/><path class="cls-5" d="M343.71,113.66l-1.41.09c-.24-3.54,1.17-3.63,1.41-.09Zm-2.46.17-1.41.09c-.24-3.54,1.17-3.63,1.41-.09Zm-2.59.17-1.41.1c-.24-3.54,1.17-3.64,1.41-.1Zm-2.5.17-1.4.1C334.52,110.72,335.92,110.63,336.16,114.17Z" transform="translate(0 0)"/><path class="cls-5" d="M377,154.82l-2.65.14c-15.56-14.44-14.07-14.28,2.65-.14Zm-4.67.26c-14.7-14.67-16.33-14.8-2.79.17l2.79-.17Zm-5.17.34c-12.58-15.22-14.35-15.31-2.93.2l2.93-.2Zm-5.23.38c-10.53-15.74-12.44-15.8-3.06.25Z" transform="translate(0 0)"/><path class="cls-5" d="M317.78,149.83c2.35-3.13,2.29-3.5-.08-1.16l.08,1.16Zm.31,4.59-.17-2.55c6.2-7.73,6.51-7,.17,2.55Zm.29,4.3-.09-1.33c9.63-15.39,11-15.23,2.06,1.21l-2,.12Zm4.27-.26,3.06-.17C332.84,141.12,331,141.44,322.65,158.46Z" transform="translate(0 0)"/><path class="cls-5" d="M295.71,110.73l-1.41.09c-.3-4.44,1.11-4.53,1.41-.09Zm-2.59.17-1.41.1c-.3-4.44,1.11-4.54,1.41-.1Zm-2.49.17-1.41.1C288.92,106.73,290.33,106.63,290.63,111.07Z" transform="translate(0 0)"/><path class="cls-5" d="M249.87,113.84l-1.41.09c-.3-4.44,1.11-4.54,1.41-.09Zm-2.59.17-1.41.1c-.3-4.45,1.11-4.54,1.41-.1Zm-2.49.17-1.41.1C243.08,109.83,244.49,109.74,244.79,114.18Z" transform="translate(0 0)"/><rect class="cls-4" width="595" height="208.6"/></svg>